# xmcd
#
# Track frame offsets:
#	150
#	13308
#	30806
#	44910
#	59816
#	76105
#	112076
#	128098
#	141480
#	156554
#	170704
#	185299
#	200150
#	213262
#
# Disc length: 2994 seconds
#
# Revision: 0
# Processed by: cddbd v1.5.2PL0 Copyright (c) Steve Scherf et al.
# Submitted via: dBpowerAMP V4.0
#
DISCID=d70bb00e
DTITLE=Lance James and Barbara Ray - Somewhere Between
DYEAR=2000
DGENRE=Country
TTITLE0=Somewhere between
TTITLE1=Kom terug na my (Lance James)
TTITLE2=Just because I'm a woman
TTITLE3=Wild side of life (honky tonk angels)
TTITLE4=No charge (Lance James)
TTITLE5=Barbara Ray Medley
TTITLE6=My kind of woman, my kind of man
TTITLE7=On my mind
TTITLE8=Blanket on the ground
TTITLE9=A Million tears (Lance James)
TTITLE10=Everybody's angel (Barbara Ray)
TTITLE11=Forever and ever (Lance James)
TTITLE12=My Best Friend
TTITLE13=Hy wil jou vrede gee (Amazing Grace) (Lance James)
EXTD=
EXTT0=
EXTT1=
EXTT2=
EXTT3=
EXTT4=
EXTT5=
EXTT6=
EXTT7=
EXTT8=
EXTT9=
EXTT10=
EXTT11=
EXTT12=
EXTT13=
PLAYORDER=
